# xmcd CD database file
#
# Track frame offsets:
#	183
#	13730
#	27945
#	42248
#	57498
#	71020
#	85228
#	99360
#	113730
#	128430
#	142010
#	157203
#	171768
#	185875
#	199640
#	214248
#	228700
#	242133
#	254838
#
# Disc length: 3578 seconds
#
# Revision: 3
# Processed by: cddbd v1.5.2PL0 Copyright (c) Steve Scherf et al.
# Submitted via: CDex 1.83
#
DISCID=1d0df813
DTITLE=Bix Beiderbecke - Bix and Tram CD02
DYEAR=1927
DGENRE=Jazz
TTITLE0=At The Jazz Band Ball
TTITLE1=Royal Garden Blues
TTITLE2=Jazz Me Blues
TTITLE3=Goose Pimples
TTITLE4=Sorry
TTITLE5=Crying All Day
TTITLE6=A Good Man Is Hard To Find
TTITLE7=Since My Best Girl Turned Me Down
TTITLE8=Sugar
TTITLE9=There'll Come A Time
TTITLE10=Jubilee
TTITLE11=Missisippi Mud
TTITLE12=Our Bungalow Of Dreams
TTITLE13=Lila
TTITLE14=Borneo
TTITLE15=My Pet
TTITLE16=Somebody Stole My Gal
TTITLE17=Thou Swell
TTITLE18=Thou Swell
EXTD=YEAR: 1927
EXTT0=
EXTT1=
EXTT2=
EXTT3=
EXTT4=
EXTT5=
EXTT6=
EXTT7=
EXTT8=
EXTT9=
EXTT10=
EXTT11=
EXTT12=
EXTT13=
EXTT14=
EXTT15=
EXTT16=
EXTT17=
EXTT18=
PLAYORDER=
